<svg width="7" height="13" viewBox="0 0 7 13" fill="none" xmlns="http://www.w3.org/2000/svg">
<path d="M0.426261 6.9238H1.85127V12.7903C1.85127 12.9061 1.94512 13 2.06095 13H4.4771C4.59293 13 4.68678 12.9061 4.68678 12.7903V6.95144H6.32495C6.43146 6.95144 6.52108 6.87151 6.53324 6.7657L6.78204 4.60594C6.78888 4.54652 6.77005 4.48701 6.7303 4.44244C6.6905 4.39782 6.63355 4.37228 6.57379 4.37228H4.68686V3.01843C4.68686 2.61032 4.90661 2.40336 5.34005 2.40336C5.40182 2.40336 6.57379 2.40336 6.57379 2.40336C6.68962 2.40336 6.78347 2.30947 6.78347 2.19369V0.211229C6.78347 0.0954032 6.68962 0.00155161 6.57379 0.00155161H4.87352C4.86153 0.000964516 4.8349 0 4.79564 0C4.50063 0 3.47518 0.0579128 2.66515 0.803106C1.76765 1.6289 1.89241 2.61766 1.92222 2.78909V4.37224H0.426261C0.310435 4.37224 0.216583 4.46609 0.216583 4.58191V6.71408C0.216583 6.82991 0.310435 6.9238 0.426261 6.9238Z" fill="#93B474"/>
</svg>
